<svg xmlns="http://www.w3.org/2000/svg" width="24" height="24" fill="none"><g clip-path="url(#A)"><path d="M20.896 2H3.104C2.494 2 2 2.494 2 3.104v17.793C2 21.506 2.494 22 3.104 22h9.58v-7.745h-2.607v-3.018h2.607V9.01c0-2.583 1.578-4 3.883-4a21.38 21.38 0 012.329.119v2.7h-1.598c-1.253 0-1.496.596-1.496 1.47v1.928h2.99l-.39 3.018h-2.6V22h5.097c.608 0 1.102-.494 1.102-1.104V3.104A1.105 1.105 0 0020.896 2z" fill="#000"/></g><defs><clipPath id="A"><path fill="#fff" d="M2 2h20v20H2z"/></clipPath></defs></svg>